<svg version="1.2" xmlns="http://www.w3.org/2000/svg" viewBox="0 0 802 802" width="802" height="802"><style>.a{fill:#4da6d9}.b{fill:#fdfefe}.c{fill:#fefefe}.d{fill:#4ca6d9}.e{fill:#000101}.f{fill:#010102}.g{fill:#010202}.h{fill:#020304}.i{fill:#010101}.j{fill:#010303}.k{fill:#020303}</style><path class="a" d="m278.5 73.9q1.2 0 2.4 0 4 0 8.1 0 2.9 0 5.8 0 8 0 16.1 0 8.6 0 17.3 0 15 0 30 0 21.7 0 43.3 0 35.2 0 70.4 0 34.2 0 68.4 0 1 0 2.1 0 10.6 0 21.2 0 21.5 0.1 43.1 0.1 1.9 0 4 0 65.1 0 130.3 0c1.1 3.3 1.1 5.7 1.1 9.2 0 1.9 0 1.9 0 3.9q0 2.2 0 4.3 0 2.3 0 4.6 0 6.4 0 12.7 0 6.8 0.1 13.7 0 13.4 0 26.8 0 10.9 0 21.8 0 30.9 0 61.9c0 1.7 0 1.7 0 3.4 0 1.7 0 1.7 0 3.4q0 27 0 54 0 27.8 0 55.5 0 15.6 0 31.2 0.1 13.3 0 26.6 0 6.7 0.1 13.5c0 16.2-0.1 32.3-1.2 48.5-0.1 1.7-0.1 1.7-0.2 3.4-1.6 20.9-6.3 41.7-12.9 61.6q1 0.5 2 1-1.5 0-3 0-0.2 1-0.3 2c-0.9 3.9-2.3 7.6-3.8 11.3q-0.5 1.2-1 2.4-1.4 3.7-2.9 7.3-0.4 1-0.9 2.1c-11.2 27.5-28 53-48.2 74.8-1.7 1.8-3.3 3.7-4.8 5.7q-1.1 1.2-2.1 2.4-1 0-2 0-0.4 0.9-0.7 1.7c-2.6 4.7-7.3 7.9-11.3 11.3q-1.4 1.3-2.9 2.6c-36.7 32.1-81.2 52.8-128.8 62.7-3.2 0.5-3.2 0.5-5.3 1.7q-2.7 0.3-5.5 0.5c-4.2 0.3-4.2 0.3-8.5 0.7-9 1.1-18.1 1.2-27.2 1.4q-2.6 0-5.2 0.1-2.5 0.1-5 0.1-1.1 0-2.3 0.1c-3.4 0.1-6.8 0.1-10.2 0-3.1-0.1-3.1-0.1-6.1 1.1-3-0.2-6.1-0.5-9.1-0.8-2.8-0.3-2.8-0.3-5 0.3-1.9 0.5-1.9 0.5-4.2 0-2.9-0.5-5.6-0.6-8.6-0.6q-1.6 0-3.3 0-1.7 0-3.5 0-1.7 0-3.5 0-1.6 0-3.3 0-1.5 0-3.1 0c-2.4-0.1-2.4-0.1-4.4 1.1q-2.5-0.4-4.9-0.7c-4-0.5-7.9-0.4-11.9-0.3q-2.6 0-5.1 0.1-1.1 0-2.2 0c-1.9-0.1-1.9-0.1-3.9-1.1q-0.5 1-1 2-0.8-0.3-1.6-0.6c-3.2-0.6-6.1 0.1-9.4 0.6q-0.5-0.5-1-1-2-0.1-4-0.1c-1.3 0-1.3 0-2.6 0q-1.4 0-2.8 0-1.4 0-2.9 0-3 0-6 0-4.6 0-9.2 0-2.9 0-5.8 0-1.4 0-2.8 0c-1.3 0-1.3 0-2.6 0q-1.2 0-2.3 0c-2.2 0-2.2 0-5 1.1q-2.5-0.5-5-1-2.5-0.1-5-0.1-1.3 0-2.8 0-1.4 0-2.8 0-1.4 0-2.9 0c-1.4 0-1.4 0-2.8 0q-1.2 0-2.5 0c-2.4 0-2.4 0-5.2 1.1q-3.1-0.4-6.1-0.7c-3.6-0.4-7.2-0.4-10.8-0.4-1.9 0-1.9 0-3.8 0-3.3-0.1-3.3-0.1-6.3 1.1q-1-0.5-2-1-2.1-0.1-4.1-0.1-1.3 0-2.6 0-1.4 0-2.8 0-1.4 0-2.9 0-3 0-6 0-4.6 0-9.1 0-3 0-5.9 0-1.3 0-2.8 0c-1.2 0-1.2 0-2.5 0q-1.2 0-2.3 0c-2.2 0-2.2 0-5 1.1q-1-0.2-1.9-0.5c-2.4-0.6-3.8-0.2-6.1 0.5q0-1 0-2-1.7 0.5-3.4 1.1c-3.6 0.9-3.6 0.9-5.6-0.1q-3.1-0.1-6.2-0.1-1.8 0-3.7 0c-2 0-2 0-4 0q-1.9 0-3.9 0-1.8 0-3.8 0-1.7 0-3.4 0c-2.5 0.1-4.6 0.4-7 1.1q0-1 0-2c-1.7 0.2-1.7 0.2-3.5 0.5-4.3 0.5-8.6 0.6-12.9 0.6q-1.2 0-2.4 0-4 0-7.9 0-2.7 0-5.5 0-5.7 0-11.4 0-7.3 0-14.7 0-5.6 0-11.2 0-2.7 0-5.5 0-3.7 0-7.5 0-1.1 0-2.3 0c-5.1 0-5.1 0-6.2-1.1q-0.2-4.6-0.3-9.3 0-1.4-0.1-2.8-0.1-4.5-0.2-9 0-3-0.1-6-0.2-7.5-0.3-14.9-0.5 0-1 0 0-2.5 0-5 0.5 0 1 0 0.1-10.8 0.1-21.6 0-3.6 0.1-7.3 0-5.3 0-10.6 0-1.6 0-3.3 0-1.5 0-3.1c0-1.3 0-1.3 0-2.7-0.2-2.6-1-4.1-2.2-6.4q0.9-2.5 2-5c-0.3-2.2-0.3-2.2-1-4q0.5 0 1 0 0.1-9.5 0.1-19.1 0-3.2 0.1-6.4 0-4.7 0-9.4 0-1.4 0-2.9 0-1.3 0-2.7 0-1.2 0-2.4c-0.1-2.4-0.1-2.4-2.2-5.1q1-1 2-2-0.5 0-1 0-0.5-3-1-6 1 0 2 0 0.1-8.6 0.1-17.3 0-2.9 0.1-5.9 0-4.2 0-8.4 0-1.3 0-2.7 0-1.2 0-2.5c0-1.1 0-1.1 0-2.2-0.1-2.1-0.1-2.1-1.2-4-1.5-3.1-0.6-5.7 0-9q0.5 0 1 0 0-0.9 0-1.9 0-9.7-0.1-19.5 0-3.6 0-7.3 0-5.2 0-10.5 0-1.6 0-3.2c0-5.3 0.2-10.4 1.1-15.6q-1 0-2 0 0.5-1 1-2-0.5-0.5-1-1 0.5-1.5 1-3c0.1-2.7 0.2-5.3 0.2-7.9q0-1.1 0-2.2c0-3.8-0.1-6.7-2.2-9.9q1 0 2 0 0.1-5.2 0.1-10.4c0.1-1.5 0.1-1.5 0.1-3q0-1.4 0-2.8 0-1.3 0-2.6c0-2.4 0-2.4-2.2-4.2q0-2 0-4 1 0 2 0 0.1-4.4 0.1-8.7 0.1-1.3 0.1-2.5 0-1.2 0-2.5 0-1.1 0-2.2c-0.1-2.2-0.1-2.2-1.3-4.2q-0.4-1-0.9-1.9c1-2 1-2 2-3q0.2-2 0.3-4c0.1-1.2 0.1-1.2 0.1-2.5q0.1-1.3 0.2-2.6 0-1.2 0.1-2.6 0.2-3.1 0.3-6.3-1.5-0.5-3-1 1-0.5 2-1c0-20.1 0-40.3 0-61q-0.5 0-1 0 0-2.5 0-5 0.5 1.5 1 3 1 0 2 0-0.1-1.1-0.1-2.2c-0.7-21 4.6-42.6 11-62.6q0.4-1.3 0.8-2.7 0.4-1.2 0.8-2.4c0.7-2.3 0.7-2.3-0.5-5.1q1.5-0.5 3-1c1.1-1.6 1.1-1.6 1.8-3.6q0.5-1.2 1-2.3 0.5-1.2 1-2.5 1.1-2.5 2.2-5 0.5-1.2 1-2.4c4.3-9.7 10.3-18.4 16.3-27.2 4.3-6.1 4.3-6.1 6.7-13q0.8-0.1 1.7-0.2c3.2-1.1 4.7-3.1 6.9-5.6q1.2-1.3 2.4-2.7c1.7-2.1 2.9-4 4-6.5 1-2 1-2 2.6-2.8 3.5-1.8 6.2-4.4 9.1-7.1 14-12.4 29.7-22.5 46.2-31.5q0.9-0.5 1.8-1c3-1.6 5.9-2.8 9.2-3.7q1.5-0.4 3.1-0.9 0.5-1 1-2c1.8-0.8 1.8-0.8 4.1-1.4q1.2-0.4 2.4-0.8 1.2-0.4 2.5-0.8 2-0.7 4-1.4c11.8-4.2 23.8-7 36-9.6q-0.5-1-1-2c1.6 0 1.6 0 3.2 0q2.1 0 4.2 0.1c1.1 0 1.1 0 2.1 0 3.6 0 7.2-0.1 10.7-0.6 4.5-0.5 8.8-0.6 13.3-0.6zm-216.5 299.1c1 2 1 2 1 2zm-1 24q1 1 2 2 0-1 0-2-1 0-2 0zm1 115c1 2 1 2 1 2z"/><path class="b" d="m298.9 182.7q2.5 0 5 0 6.8 0 13.6 0 4.2 0 8.4 0 14.8-0.1 29.7-0.1 13.7 0 27.5 0 11.8-0.1 23.7-0.1 7.1 0 14.1 0 6.7 0 13.3 0 2.4 0 4.9 0c16.1-0.1 30.7 2.3 43.2 13.6 10.2 10.6 13 23.4 13 37.7q0 1.7 0 3.5 0 4.8 0 9.7 0 5.2 0 10.5 0 10.2 0 20.4 0 8.3 0 16.7 0.1 23.6 0.1 47.2 0 1.3 0 2.6 0 1.2 0 2.5 0 20.7 0 41.3 0.1 21.2 0.1 42.4 0 11.9 0 23.8 0 10.2 0 20.3 0 5.2 0 10.3 0 5.6 0 11.2 0 1.7 0 3.3c0 7.5-1.3 12.8-6.3 18.6q-0.9 0.6-1.8 1.3-0.8 0.7-1.7 1.5c-3.4 2.2-6.4 2.2-10.4 2.3q-1.7 0-3.5 0c-1.9 0-1.9 0-3.8 0q-1.9 0-3.9 0-4.1 0-8.2 0-5.2 0.1-10.5 0.1-5 0-10 0-1.9 0-3.8 0.1c-7-0.1-12.1-0.2-17.5-5.1q-0.7-0.9-1.4-1.8-0.7-0.9-1.5-1.8c-2.7-3.8-2.3-7.8-2.3-12.3q0-1.1 0-2.3 0-3.9 0-7.7 0-2.6 0-5.3 0-7 0-13.9 0-7.1 0.1-14.3 0-13.9 0-27.9-26.5 0.1-53 0.2-12.3 0-24.6 0.1-10.7 0-21.4 0.1-5.7 0-11.4 0-5.3 0-10.7 0-2.8 0.1-5.7 0c-11.3 0.2-21.9 2.5-30.2 10.6-6.6 7.5-8.3 13.4-8.3 23.2q0 3.1-0.1 6.2 0 4.8-0.1 9.7c-0.2 31.3-0.2 31.3-7.1 44.2-0.5 1-0.5 1-1.1 2-7.4 13.7-19.8 23.5-34.3 28.7-9 2.6-20.9 4.4-29.8 0.4-5-3.2-8.5-7.7-10.2-13.4-0.3-3.2-0.3-6.3-0.3-9.5q0-1.4 0-2.9 0-4.8 0-9.7 0-3.4 0-6.9 0-9.4 0-18.8 0-7.9 0-15.7 0-19.7 0-39.3 0-17 0-34-0.1-17.5-0.1-35 0-9.9 0-19.7 0-9.2 0-18.5 0-3.3 0-6.7c0-15.9 0.8-31.2 6.1-46.4q0.4-1.1 0.8-2.2c6.3-17.7 16.2-33.5 28.5-47.7q1-1.2 2.1-2.4c4.3-5 8.8-9.4 13.9-13.6q1.4-1.2 2.8-2.3c16-13 35-22.6 55.2-26.7q1.3-0.3 2.6-0.5c8.8-1.7 17.4-1.8 26.3-1.8z"/><path class="c" d="m546.7 182.8c1.8 0 1.8 0 3.6 0q2 0 4 0 2 0 4 0 4.3 0 8.5 0 5.4-0.1 10.9-0.1 4.1 0 8.3 0 3 0 6-0.1c7.3 0.1 13.2 0.1 19 5.1 0.7 0.9 0.7 0.9 1.4 1.8q0.7 0.9 1.4 1.8c2.1 3 2.3 5.7 2.3 9.2q0 1.4 0 2.8 0 1.6 0 3.1 0 1.7 0 3.3 0.1 5.5 0.1 11 0 3.9 0 7.9 0 10.7 0 21.4 0 6.6 0 13.3 0 18.5 0 37c0 1.2 0 1.2 0 2.4 0 1.2 0 1.2 0 2.4q0 2.5 0 4.9 0 1.1 0 2.4 0 19.3 0.1 38.6 0 19.9 0 39.7 0 11.1 0 22.3 0.1 9.5 0.1 19 0 4.8 0 9.6c0.1 21.9-1.1 41.5-16.9 58.2-14.1 14-33.7 23.1-53.6 23.6-6-0.2-9.7-1.5-14.2-5.4-2.8-3.3-2.8-6.2-2.8-10.3 0-1.7 0-1.7 0-3.4q0-1.8 0-3.7-0.1-1.9-0.1-3.9 0-5.4 0-10.8 0-5.9 0-11.7 0-14.1 0-28.2 0-6.6-0.1-13.2 0-22.1 0-44.1 0-5.7 0-11.5 0-1.4 0-2.8 0-23.1-0.1-46.1 0-23.7 0-47.3 0-13.3-0.1-26.6 0-11.3 0-22.6 0-5.7 0-11.5 0-6.3 0-12.5 0-1.8 0-3.7c0-7.6 0.8-11.3 6.1-16.7 4.5-3.5 6.5-4.5 12.1-4.6z"/><path class="d" d="m298 259.9q1.4 0 2.9 0 1.6 0 3.2 0 1.7 0 3.4 0 5.6 0 11.1 0 3.9 0 7.8 0 9.1 0 18.2 0 11.4 0 22.8 0.1 20.3 0 40.6 0c0 32 0 64 0 97-13.9 0.1-13.9 0.1-28.1 0.1q-8.9 0.1-17.7 0.1-14.1 0.1-28.1 0.1-10.2 0.1-20.4 0.1-5.4 0.1-10.9 0.1c-18 0-34 0.3-50.9 7.3-2.9 1.2-5.9 2.2-8.9 3.2q-0.2-12.2-0.3-24.4 0-5.6-0.1-11.3-0.1-5.5-0.1-10.9 0-2.1 0-4.2c-0.3-14.8 4.1-25.8 13.5-37.2q0.8-1 1.6-2c9.3-10.4 26.4-18.1 40.4-18.1z"/><path class="e" d=""/><path class="e" d=""/><path class="e" d=""/><path class="f" d=""/><path class="e" d=""/><path class="e" d=""/><path class="e" d=""/><path class="e" d=""/><path class="e" d=""/><path class="f" d=""/><path class="e" d=""/><path class="e" d=""/><path class="e" d=""/><path class="e" d=""/><path class="e" d=""/><path class="g" d=""/><path class="g" d=""/><path class="f" d=""/><path class="g" d=""/><path class="e" d=""/><path class="e" d=""/><path class="e" d=""/><path class="e" d=""/><path class="e" d=""/><path class="e" d=""/><path class="f" d=""/><path class="e" d=""/><path class="e" d=""/><path class="h" d=""/><path class="e" d=""/><path class="g" d="m128 132c2 1 2 1 2 1z"/><path class="e" d=""/><path class="e" d=""/><path class="g" d=""/><path class="e" d=""/><path class="e" d=""/><path class="e" d=""/><path class="e" d=""/><path class="e" d=""/><path class="e" d=""/><path class="e" d=""/><path class="e" d=""/><path class="e" d=""/><path class="e" d=""/><path class="e" d=""/><path class="e" d=""/><path class="e" d=""/><path class="e" d=""/><path class="e" d=""/><path class="e" d=""/><path class="e" d=""/><path class="e" d=""/><path class="e" d=""/><path class="e" d=""/><path class="i" d=""/><path class="e" d=""/><path class="e" d=""/><path class="i" d=""/><path class="g" d=""/><path class="e" d=""/><path class="e" d=""/><path class="e" d=""/><path class="e" d=""/><path class="e" d=""/><path class="e" d=""/><path class="e" d=""/><path class="i" d=""/><path class="i" d=""/><path class="i" d=""/><path class="e" d=""/><path class="e" d=""/><path class="j" d=""/><path class="i" d=""/><path class="g" d=""/><path class="e" d=""/><path class="g" d=""/><path class="e" d=""/><path class="e" d=""/><path class="e" d=""/><path class="i" d=""/><path class="e" d=""/><path class="e" d=""/><path class="f" d=""/><path class="i" d=""/><path class="e" d=""/><path class="e" d=""/><path class="e" d=""/><path class="e" d=""/><path class="e" d=""/><path class="e" d=""/><path class="f" d=""/><path class="e" d=""/><path class="i" d=""/><path class="i" d=""/><path class="e" d=""/><path class="e" d=""/><path class="f" d=""/><path class="e" d=""/><path class="e" d=""/><path class="e" d=""/><path class="g" d=""/><path class="e" d=""/><path class="f" d=""/><path class="e" d=""/><path class="e" d=""/><path class="e" d=""/><path class="g" d=""/><path class="g" d=""/><path class="e" d=""/><path class="g" d=""/><path class="e" d=""/><path class="e" d=""/><path class="e" d=""/><path class="i" d=""/><path class="i" d=""/><path class="e" d=""/><path class="e" d=""/><path class="e" d=""/><path class="f" d=""/><path class="e" d=""/><path class="g" d=""/><path class="e" d=""/><path class="h" d=""/><path class="f" d=""/><path class="e" d=""/><path class="e" d=""/><path class="f" d=""/><path class="e" d=""/><path class="e" d=""/><path class="e" d=""/><path class="g" d=""/><path class="e" d=""/><path class="f" d=""/><path class="f" d=""/><path class="e" d=""/><path class="e" d=""/><path class="f" d=""/><path class="e" d=""/><path class="e" d=""/><path class="e" d=""/><path class="e" d=""/><path class="f" d=""/><path class="e" d=""/><path class="g" d=""/><path class="e" d=""/><path class="e" d=""/><path class="e" d=""/><path class="e" d=""/><path class="e" d=""/><path class="e" d=""/><path class="e" d=""/><path class="e" d=""/><path class="e" d=""/><path class="e" d=""/><path class="e" d=""/><path class="e" d=""/><path class="f" d=""/><path class="e" d=""/><path class="e" d=""/><path class="e" d=""/><path class="e" d=""/><path class="e" d=""/><path class="e" d=""/><path class="f" d=""/><path class="e" d=""/><path class="f" d=""/><path class="f" d=""/><path class="e" d=""/><path class="e" d=""/><path class="e" d=""/><path class="e" d=""/><path class="e" d=""/><path class="e" d=""/><path class="e" d=""/><path class="k" d=""/><path class="f" d=""/><path class="f" d=""/><path class="f" d=""/><path class="f" d=""/><path class="f" d=""/><path class="e" d=""/><path class="e" d=""/><path class="e" d=""/><path class="g" d=""/><path class="g" d=""/><path class="e" d=""/><path class="f" d=""/><path class="e" d=""/><path class="e" d=""/><path class="g" d=""/><path class="e" d=""/><path class="f" d=""/><path class="f" d=""/><path class="e" d=""/><path class="e" d=""/><path class="e" d=""/><path class="g" d=""/><path class="e" d=""/><path class="e" d=""/><path class="f" d=""/><path class="f" d=""/><path class="g" d=""/><path class="g" d=""/><path class="f" d=""/><path class="k" d=""/><path class="e" d=""/><path class="e" d=""/><path class="f" d=""/><path class="f" d=""/><path class="e" d=""/><path class="f" d=""/><path class="e" d=""/><path class="e" d=""/><path class="e" d=""/><path class="f" d=""/><path class="e" d=""/><path class="e" d=""/><path class="e" d=""/><path class="e" d=""/><path class="e" d=""/><path class="f" d=""/><path class="e" d=""/><path class="e" d=""/><path class="e" d=""/><path class="e" d=""/><path class="e" d=""/><path class="e" d=""/><path class="e" d=""/><path class="e" d=""/><path class="e" d=""/><path class="e" d=""/><path class="e" d=""/><path class="e" d=""/><path class="e" d=""/><path class="f" d=""/><path class="e" d=""/><path class="e" d=""/><path class="e" d=""/><path class="e" d=""/><path class="e" d=""/><path class="e" d=""/><path class="e" d=""/></svg>